<?xml version="1.0" standalone="no"?>
<svg xmlns="http://www.w3.org/2000/svg" viewBox="0 0 150.912 36" width="150.912" height="36"><g fill="#1ae300" color="#1ae300" transform="translate(0 3.9999999999999982) scale(0.2800001)"><svg width="100.0" height="100.0" x="0.0" y="0.0" viewBox="0 0 100 100"><g><path fill-rule="evenodd" clip-rule="evenodd" d="M50,5.194c-19.78,0-35.813,16.034-35.813,35.813   c0,9.889,4.398,18.474,10.49,25.324L50,94.806l25.324-28.474c6.09-6.851,10.488-15.436,10.488-25.325   C85.813,21.229,69.779,5.194,50,5.194z M67.906,58.913C63.324,63.496,56.992,66.33,50,66.33c-6.995,0-13.324-2.834-17.908-7.417   C27.51,54.33,24.676,48,24.676,41.007c0-13.987,11.339-25.323,25.325-25.323c13.984,0,25.324,11.336,25.324,25.323   C75.324,48,72.488,54.33,67.906,58.913z"></path><polygon fill-rule="evenodd" clip-rule="evenodd" points="53.561,26.995 46.439,26.995 46.439,37.446 35.988,37.446 35.988,44.568    46.439,44.568 46.439,55.019 53.561,55.019 53.561,44.568 64.012,44.568 64.012,37.446 53.561,37.446  "></polygon></g></svg></g><path fill="#000000" fill-rule="nonzero" d="M6.89 5.47L6.89 5.47L6.91 3.96Q6.91 2.52 6.82 1.63L6.82 1.63L5.86 1.56Q5.78 1.27 5.78 0.82Q5.78 0.36 5.81 0.22L5.81 0.22Q7.94 0.12 8.93 0L8.93 0L9.02 0.12Q8.66 3.26 8.66 8.22Q8.66 13.18 8.88 14.76L8.88 14.76L9.77 14.81Q9.82 15.34 9.82 15.59Q9.82 15.84 9.74 16.20L9.74 16.20Q8.81 16.25 7.13 16.44L7.13 16.44Q6.94 16.06 6.84 15.22L6.84 15.22Q5.18 16.73 3.49 16.73Q1.80 16.73 0.90 15.19Q0 13.66 0 10.84Q0 8.02 1.14 6.46Q2.28 4.90 4.42 4.90L4.42 4.90Q5.62 4.90 6.89 5.47ZM4.44 6.31L4.44 6.31Q2.04 6.31 2.04 11.09L2.04 11.09Q2.04 12.89 2.58 13.88Q3.12 14.88 4.08 14.88L4.08 14.88Q4.73 14.88 5.51 14.47Q6.29 14.06 6.86 13.44L6.86 13.44Q6.91 10.46 6.91 7.01L6.91 7.01Q5.38 6.31 4.44 6.31ZM12.12 15.05L12.96 14.98Q13.18 12.62 13.18 10.67Q13.18 8.71 12.98 6.60L12.98 6.60L12.10 6.53Q12.02 6.12 12.02 5.75Q12.02 5.38 12.05 5.18L12.05 5.18Q13.44 5.14 15.02 4.97L15.02 4.97L15.14 5.09Q14.93 6.50 14.93 9.84Q14.93 13.18 15.14 14.98L15.14 14.98L16.03 15.05Q16.08 15.43 16.08 15.71Q16.08 15.98 16.01 16.39L16.01 16.39Q15.17 16.37 14.06 16.37Q12.96 16.37 12.14 16.39L12.14 16.39Q12.07 16.03 12.07 15.65Q12.07 15.26 12.12 15.05L12.12 15.05ZM15.38 1.66L15.38 1.66Q15.38 3.14 13.85 3.14L13.85 3.14Q12.65 3.14 12.65 1.92L12.65 1.92Q12.65 0.41 14.18 0.41L14.18 0.41Q15.38 0.41 15.38 1.66ZM22.37 4.90L22.37 4.90Q22.66 4.90 22.80 4.92L22.80 4.92Q24.31 2.62 26.09 2.62L26.09 2.62Q27.65 2.62 27.65 4.13L27.65 4.13Q27.65 5.18 26.60 5.18Q25.56 5.18 25.39 4.10L25.39 4.10Q24.70 4.10 24.10 5.14L24.10 5.14Q26.42 5.90 26.42 8.98L26.42 8.98Q26.42 10.85 25.68 12.10L25.68 12.10Q24.84 13.49 22.37 13.49L22.37 13.49Q21.34 13.49 20.69 13.25L20.69 13.25Q20.18 14.14 19.94 15.19L19.94 15.19Q20.35 15.26 20.81 15.26Q21.26 15.26 22.63 15.10Q24 14.93 24.60 14.93L24.60 14.93Q25.85 14.93 26.62 15.55Q27.38 16.18 27.38 17.47Q27.38 18.77 26.54 19.73L26.54 19.73Q25.08 21.41 21.98 21.41L21.98 21.41Q19.90 21.41 18.79 20.88Q17.69 20.35 17.69 18.91L17.69 18.91Q17.69 17.86 18.82 16.73L18.82 16.73Q18.36 16.39 18.36 15.79L18.36 15.79Q18.36 14.52 19.58 12.67L19.58 12.67Q18.31 11.64 18.31 8.98L18.31 8.98Q18.31 4.90 22.37 4.90ZM20.26 9.00Q20.26 11.83 22.37 11.83Q24.48 11.83 24.48 9.00Q24.48 6.17 22.37 6.17Q20.26 6.17 20.26 9.00ZM19.63 18.55L19.63 18.55Q19.63 20.09 22.44 20.09L22.44 20.09Q23.64 20.09 24.59 19.56Q25.54 19.03 25.54 17.98L25.54 17.98Q25.54 16.80 24.26 16.80L24.26 16.80Q23.64 16.80 22.30 16.96Q20.95 17.11 20.14 17.11L20.14 17.11L19.94 17.11Q19.63 17.78 19.63 18.55ZM29.62 15.05L30.46 14.98Q30.67 12.62 30.67 10.67Q30.67 8.71 30.48 6.60L30.48 6.60L29.59 6.53Q29.52 6.12 29.52 5.75Q29.52 5.38 29.54 5.18L29.54 5.18Q30.94 5.14 32.52 4.97L32.52 4.97L32.64 5.09Q32.42 6.50 32.42 9.84Q32.42 13.18 32.64 14.98L32.64 14.98L33.53 15.05Q33.58 15.43 33.58 15.71Q33.58 15.98 33.50 16.39L33.50 16.39Q32.66 16.37 31.56 16.37Q30.46 16.37 29.64 16.39L29.64 16.39Q29.57 16.03 29.57 15.65Q29.57 15.26 29.62 15.05L29.62 15.05ZM32.88 1.66L32.88 1.66Q32.88 3.14 31.34 3.14L31.34 3.14Q30.14 3.14 30.14 1.92L30.14 1.92Q30.14 0.41 31.68 0.41L31.68 0.41Q32.88 0.41 32.88 1.66ZM36.38 12.48L36.38 12.48Q36.38 12.48 36.43 7.13L36.43 7.13Q36.43 6.77 36.41 6.58L36.41 6.58Q35.40 6.58 34.97 6.60L34.97 6.60Q34.82 6.22 34.82 5.84Q34.82 5.47 34.87 5.28L34.87 5.28L36.34 5.28L36.22 3.50Q36.82 3.31 37.48 3.31Q38.14 3.31 38.57 3.41L38.57 3.41L38.35 5.26Q39.67 5.23 41.02 5.11L41.02 5.11Q41.16 5.42 41.16 5.80Q41.16 6.17 41.06 6.70L41.06 6.70Q40.18 6.65 38.26 6.60L38.26 6.60Q38.21 7.08 38.21 8.02L38.21 8.02L38.21 12.89Q38.21 13.51 38.27 13.91Q38.33 14.30 38.58 14.63Q38.83 14.95 39.31 14.95L39.31 14.95Q40.37 14.95 41.33 14.21L41.33 14.21Q41.83 14.93 41.83 16.15L41.83 16.15Q40.51 16.73 39.54 16.73Q38.57 16.73 37.99 16.48Q37.42 16.22 37.10 15.88Q36.79 15.53 36.62 14.90L36.62 14.90Q36.38 14.02 36.38 12.48ZM51.26 8.09L51.26 8.09L51.17 11.54Q51.17 13.18 51.36 14.74L51.36 14.74L52.25 14.81Q52.30 15.19 52.30 15.52Q52.30 15.84 52.22 16.20L52.22 16.20Q51.53 16.22 49.51 16.44L49.51 16.44Q49.34 15.98 49.25 15.31L49.25 15.31Q47.38 16.73 46.02 16.73Q44.66 16.73 43.91 15.85Q43.15 14.98 43.15 13.36Q43.15 11.74 44.17 10.80Q45.19 9.86 46.74 9.86Q48.29 9.86 49.39 10.44L49.39 10.44Q49.42 10.18 49.42 9.58L49.42 9.58Q49.42 7.80 48.92 7.02Q48.43 6.24 47.42 6.24Q46.42 6.24 45.96 6.62L45.96 6.62Q46.15 7.01 46.15 7.58Q46.15 8.16 45.78 8.58Q45.41 9.00 44.74 9.00L44.74 9.00Q43.61 9.00 43.61 7.67Q43.61 6.34 44.62 5.62Q45.62 4.90 47.45 4.90Q49.27 4.90 50.27 5.75Q51.26 6.60 51.26 8.09ZM49.30 11.95L49.30 11.95Q48.31 11.11 47.18 11.11L47.18 11.11Q45.02 11.11 45.02 13.03L45.02 13.03Q45.02 15.00 46.73 15.00L46.73 15.00Q47.35 15.00 48.06 14.68Q48.77 14.35 49.18 13.87L49.18 13.87Q49.30 12.43 49.30 11.95ZM55.54 10.80L55.54 10.80L55.54 7.51Q55.54 3.19 55.42 1.63L55.42 1.63L54.46 1.56Q54.38 1.25 54.38 0.83Q54.38 0.41 54.41 0.22L54.41 0.22Q56.59 0.10 57.53 0L57.53 0L57.62 0.12Q57.29 2.98 57.29 6.26L57.29 6.26L57.29 10.22Q57.29 13.18 57.50 14.98L57.50 14.98L58.39 15.05Q58.44 15.43 58.44 15.71Q58.44 15.98 58.37 16.39L58.37 16.39Q57.53 16.37 56.42 16.37Q55.32 16.37 54.50 16.39L54.50 16.39Q54.43 16.03 54.43 15.76Q54.43 15.48 54.48 15.05L54.48 15.05L55.32 14.98Q55.54 12.72 55.54 10.80ZM61.75 11.38L61.75 11.38L61.68 6.58Q60.62 6.58 60.31 6.60L60.31 6.60Q60.17 6.19 60.17 5.81Q60.17 5.42 60.22 5.28L60.22 5.28L61.61 5.28Q61.58 5.06 61.58 4.32L61.58 4.32Q61.58 0.17 64.92 0.17L64.92 0.17Q66.02 0.17 66.90 0.65Q67.78 1.13 67.78 2.16L67.78 2.16Q67.78 3.50 66.65 3.50L66.65 3.50Q66 3.50 65.63 3.12Q65.26 2.74 65.24 2.26Q65.23 1.78 65.28 1.58L65.28 1.58Q65.06 1.49 64.82 1.49L64.82 1.49Q63.34 1.49 63.34 4.46L63.34 4.46Q63.34 5.06 63.36 5.26L63.36 5.26Q65.16 5.23 66.36 5.11L66.36 5.11Q66.50 5.42 66.50 5.81Q66.50 6.19 66.41 6.70L66.41 6.70Q66.07 6.67 63.48 6.60L63.48 6.60L63.48 8.86L63.50 10.68Q63.50 13.30 63.74 14.98L63.74 14.98L64.61 15.05Q64.66 15.26 64.66 15.62Q64.66 15.98 64.58 16.39L64.58 16.39Q63.91 16.37 62.62 16.37Q61.32 16.37 60.72 16.39L60.72 16.39Q60.65 16.03 60.65 15.71Q60.65 15.38 60.70 15.05L60.70 15.05L61.51 14.98Q61.75 12.65 61.75 11.38ZM75.89 8.09L75.89 8.09L75.79 11.54Q75.79 13.18 75.98 14.74L75.98 14.74L76.87 14.81Q76.92 15.19 76.92 15.52Q76.92 15.84 76.85 16.20L76.85 16.20Q76.15 16.22 74.14 16.44L74.14 16.44Q73.97 15.98 73.87 15.31L73.87 15.31Q72.00 16.73 70.64 16.73Q69.29 16.73 68.53 15.85Q67.78 14.98 67.78 13.36Q67.78 11.74 68.80 10.80Q69.82 9.86 71.36 9.86Q72.91 9.86 74.02 10.44L74.02 10.44Q74.04 10.18 74.04 9.58L74.04 9.58Q74.04 7.80 73.55 7.02Q73.06 6.24 72.05 6.24Q71.04 6.24 70.58 6.62L70.58 6.62Q70.78 7.01 70.78 7.58Q70.78 8.16 70.40 8.58Q70.03 9.00 69.36 9.00L69.36 9.00Q68.23 9.00 68.23 7.67Q68.23 6.34 69.24 5.62Q70.25 4.90 72.07 4.90Q73.90 4.90 74.89 5.75Q75.89 6.60 75.89 8.09ZM73.92 11.95L73.92 11.95Q72.94 11.11 71.81 11.11L71.81 11.11Q69.65 11.11 69.65 13.03L69.65 13.03Q69.65 15.00 71.35 15.00L71.35 15.00Q71.98 15.00 72.68 14.68Q73.39 14.35 73.80 13.87L73.80 13.87Q73.92 12.43 73.92 11.95ZM78.79 15.05L79.63 14.98Q79.85 12.58 79.85 10.57Q79.85 8.57 79.66 6.60L79.66 6.60L78.77 6.53Q78.70 6.14 78.70 5.74Q78.70 5.33 78.72 5.18L78.72 5.18Q79.94 5.16 81.70 4.97L81.70 4.97L81.82 5.09Q81.79 5.23 81.67 6.50L81.67 6.50Q82.22 5.81 82.96 5.35Q83.69 4.90 84.40 4.90Q85.10 4.90 85.63 5.40Q86.16 5.90 86.16 6.72L86.16 6.72Q86.16 8.06 85.03 8.06L85.03 8.06Q84.38 8.06 84.00 7.64Q83.62 7.22 83.62 6.53L83.62 6.53Q83.57 6.50 83.45 6.50L83.45 6.50Q82.56 6.50 81.62 7.85L81.62 7.85Q81.60 8.52 81.60 10.86Q81.60 13.20 81.82 14.98L81.82 14.98L82.70 15.05Q82.75 15.58 82.75 15.78Q82.75 15.98 82.68 16.39L82.68 16.39Q82.01 16.37 80.71 16.37Q79.42 16.37 78.82 16.39L78.82 16.39Q78.74 16.03 78.74 15.71Q78.74 15.38 78.79 15.05L78.79 15.05ZM102.38 8.33L102.38 8.33L102.36 10.30Q102.36 12.82 102.65 14.98L102.65 14.98L103.51 15.05Q103.56 15.26 103.56 15.62Q103.56 15.98 103.49 16.39L103.49 16.39Q102.82 16.37 101.47 16.37Q100.13 16.37 99.55 16.39L99.55 16.39Q99.48 16.03 99.48 15.71Q99.48 15.38 99.53 15.05L99.53 15.05L100.34 14.98Q100.54 12.17 100.54 10.16Q100.54 8.16 100.18 7.30Q99.82 6.43 98.98 6.43L98.98 6.43Q97.78 6.43 96.41 8.02L96.41 8.02L96.38 10.30Q96.38 12.82 96.67 14.98L96.67 14.98L97.51 15.05Q97.56 15.43 97.56 15.71Q97.56 15.98 97.49 16.39L97.49 16.39Q96.82 16.37 95.47 16.37Q94.13 16.37 93.55 16.39L93.55 16.39Q93.48 16.03 93.48 15.71Q93.48 15.38 93.53 15.05L93.53 15.05L94.37 14.98Q94.56 12.17 94.56 10.16Q94.56 8.16 94.20 7.30Q93.84 6.43 93.00 6.43L93.00 6.43Q91.78 6.43 90.43 7.99L90.43 7.99Q90.41 8.62 90.41 10.91Q90.41 13.20 90.62 14.98L90.62 14.98L91.51 15.05Q91.56 15.58 91.56 15.78Q91.56 15.98 91.49 16.39L91.49 16.39Q90.82 16.37 89.52 16.37Q88.22 16.37 87.62 16.39L87.62 16.39Q87.55 16.03 87.55 15.71Q87.55 15.38 87.60 15.05L87.60 15.05L88.44 14.98Q88.66 12.58 88.66 10.57Q88.66 8.57 88.46 6.60L88.46 6.60L87.58 6.53Q87.50 6.12 87.50 5.72Q87.50 5.33 87.53 5.18L87.53 5.18Q88.75 5.16 90.50 4.97L90.50 4.97L90.62 5.09Q90.55 5.59 90.48 6.50L90.48 6.50Q91.18 5.78 92.09 5.34Q93.00 4.90 93.79 4.90L93.79 4.90Q95.76 4.90 96.26 6.74L96.26 6.74Q96.96 5.93 97.93 5.41Q98.90 4.90 99.77 4.90L99.77 4.90Q101.11 4.90 101.75 5.72Q102.38 6.55 102.38 8.33ZM113.88 8.09L113.88 8.09L113.78 11.54Q113.78 13.18 113.98 14.74L113.98 14.74L114.86 14.81Q114.91 15.19 114.91 15.52Q114.91 15.84 114.84 16.20L114.84 16.20Q114.14 16.22 112.13 16.44L112.13 16.44Q111.96 15.98 111.86 15.31L111.86 15.31Q109.99 16.73 108.64 16.73Q107.28 16.73 106.52 15.85Q105.77 14.98 105.77 13.36Q105.77 11.74 106.79 10.80Q107.81 9.86 109.36 9.86Q110.90 9.86 112.01 10.44L112.01 10.44Q112.03 10.18 112.03 9.58L112.03 9.58Q112.03 7.80 111.54 7.02Q111.05 6.24 110.04 6.24Q109.03 6.24 108.58 6.62L108.58 6.62Q108.77 7.01 108.77 7.58Q108.77 8.16 108.40 8.58Q108.02 9.00 107.35 9.00L107.35 9.00Q106.22 9.00 106.22 7.67Q106.22 6.34 107.23 5.62Q108.24 4.90 110.06 4.90Q111.89 4.90 112.88 5.75Q113.88 6.60 113.88 8.09ZM111.91 11.95L111.91 11.95Q110.93 11.11 109.80 11.11L109.80 11.11Q107.64 11.11 107.64 13.03L107.64 13.03Q107.64 15.00 109.34 15.00L109.34 15.00Q109.97 15.00 110.68 14.68Q111.38 14.35 111.79 13.87L111.79 13.87Q111.91 12.43 111.91 11.95Z" transform="translate(36, 9.816)"></path></svg>