<?xml version="1.0" standalone="no"?>
<svg xmlns="http://www.w3.org/2000/svg" viewBox="0 0 113 70" width="113" height="70"><g fill="#1ae300" color="#1ae300" transform="translate(34.426 0) scale(0.44) "><svg width="100.0" height="100.0" x="0.0" y="0.0" viewBox="0 0 100 100"><g><path fill-rule="evenodd" clip-rule="evenodd" d="M50,5.194c-19.78,0-35.813,16.034-35.813,35.813   c0,9.889,4.398,18.474,10.49,25.324L50,94.806l25.324-28.474c6.09-6.851,10.488-15.436,10.488-25.325   C85.813,21.229,69.779,5.194,50,5.194z M67.906,58.913C63.324,63.496,56.992,66.33,50,66.33c-6.995,0-13.324-2.834-17.908-7.417   C27.51,54.33,24.676,48,24.676,41.007c0-13.987,11.339-25.323,25.325-25.323c13.984,0,25.324,11.336,25.324,25.323   C75.324,48,72.488,54.33,67.906,58.913z"></path><polygon fill-rule="evenodd" clip-rule="evenodd" points="53.561,26.995 46.439,26.995 46.439,37.446 35.988,37.446 35.988,44.568    46.439,44.568 46.439,55.019 53.561,55.019 53.561,44.568 64.012,44.568 64.012,37.446 53.561,37.446  "></polygon></g></svg></g><path fill="#000000" fill-rule="nonzero" d="M4.42 16.94L0.12 16.97Q0 16.97 0 16.85L0 16.85L0.05 0.36Q0.05 0.26 0.14 0.26L0.14 0.26L4.63 0.24Q5.95 0.22 7.04 0.86Q8.14 1.51 8.78 2.60Q9.43 3.70 9.43 5.02L9.43 5.02L9.43 11.90Q9.43 13.30 8.76 14.44Q8.09 15.58 6.96 16.25Q5.83 16.92 4.42 16.94L4.42 16.94ZM2.95 3.14L2.93 14.02L4.42 14.02Q5.30 14.02 5.92 13.39Q6.53 12.77 6.53 11.90L6.53 11.90L6.53 4.99Q6.53 4.22 5.96 3.66Q5.40 3.10 4.63 3.12L4.63 3.12L2.95 3.14ZM14.16 16.97L11.45 16.97Q11.33 16.97 11.33 16.85L11.33 16.85L11.35 0.36Q11.35 0.26 11.45 0.26L11.45 0.26L14.14 0.26Q14.23 0.26 14.23 0.36L14.23 0.36L14.26 16.85Q14.26 16.97 14.16 16.97L14.16 16.97ZM20.76 17.21L20.76 17.21Q19.46 17.21 18.41 16.56Q17.35 15.91 16.72 14.82Q16.08 13.73 16.08 12.38L16.08 12.38L16.08 4.78Q16.08 3.48 16.72 2.39Q17.35 1.30 18.42 0.65Q19.49 0 20.76 0L20.76 0Q22.08 0 23.15 0.64Q24.22 1.27 24.84 2.35Q25.46 3.43 25.46 4.78L25.46 4.78L25.46 5.88Q25.46 5.98 25.34 5.98L25.34 5.98L22.66 5.98Q22.56 5.98 22.56 5.88L22.56 5.88L22.56 4.97Q22.56 4.06 22.04 3.46Q21.53 2.86 20.76 2.86L20.76 2.86Q20.06 2.86 19.52 3.43Q18.98 4.01 18.98 4.78L18.98 4.78L18.98 12.38Q18.98 13.18 19.51 13.74Q20.04 14.30 20.76 14.30L20.76 14.30Q21.53 14.30 22.04 13.75Q22.56 13.20 22.56 12.38L22.56 12.38L22.56 11.21L20.88 11.21Q20.76 11.21 20.76 11.09L20.76 11.09L20.76 8.40Q20.76 8.28 20.88 8.28L20.88 8.28L25.37 8.28Q25.46 8.28 25.46 8.40L25.46 8.40L25.46 12.38Q25.46 13.73 24.83 14.82Q24.19 15.91 23.14 16.56Q22.08 17.21 20.76 17.21ZM30 16.97L27.29 16.97Q27.17 16.97 27.17 16.85L27.17 16.85L27.19 0.36Q27.19 0.26 27.29 0.26L27.29 0.26L29.98 0.26Q30.07 0.26 30.07 0.36L30.07 0.36L30.10 16.85Q30.10 16.97 30 16.97L30 16.97ZM37.32 16.97L34.61 16.97Q34.51 16.97 34.51 16.85L34.51 16.85L34.51 3.17L31.39 3.17Q31.27 3.17 31.27 3.05L31.27 3.05L31.30 0.36Q31.30 0.26 31.39 0.26L31.39 0.26L40.51 0.26Q40.63 0.26 40.63 0.36L40.63 0.36L40.63 3.05Q40.63 3.17 40.54 3.17L40.54 3.17L37.39 3.17L37.42 16.85Q37.42 16.97 37.32 16.97L37.32 16.97ZM40.13 16.85L40.13 16.85L43.10 0.36Q43.13 0.26 43.22 0.26L43.22 0.26L46.70 0.26Q46.80 0.26 46.82 0.36L46.82 0.36L49.68 16.85Q49.70 16.97 49.58 16.97L49.58 16.97L46.92 16.97Q46.82 16.97 46.80 16.85L46.80 16.85L46.54 15.10L43.27 15.10L43.01 16.85Q42.98 16.97 42.89 16.97L42.89 16.97L40.22 16.97Q40.13 16.97 40.13 16.85ZM44.83 5.78L43.75 12.53L46.06 12.53L45.07 5.78L44.93 4.90L44.83 5.78ZM59.04 16.97L51.29 16.97Q51.19 16.97 51.19 16.85L51.19 16.85L51.22 0.38Q51.22 0.26 51.34 0.26L51.34 0.26L54 0.26Q54.12 0.26 54.12 0.38L54.12 0.38L54.10 14.02L59.04 14.02Q59.16 14.02 59.16 14.14L59.16 14.14L59.16 16.85Q59.16 16.97 59.04 16.97L59.04 16.97ZM63.53 16.97L60.84 16.97Q60.72 16.97 60.72 16.85L60.72 16.85L60.77 0.36Q60.77 0.26 60.86 0.26L60.86 0.26L68.54 0.26Q68.66 0.26 68.66 0.36L68.66 0.36L68.66 3.07Q68.66 3.17 68.57 3.17L68.57 3.17L63.65 3.17L63.65 6.89L68.57 6.89Q68.66 6.89 68.66 7.01L68.66 7.01L68.69 9.72Q68.69 9.82 68.57 9.82L68.57 9.82L63.65 9.82L63.65 16.85Q63.65 16.97 63.53 16.97L63.53 16.97ZM68.59 16.85L68.59 16.85L71.57 0.36Q71.59 0.26 71.69 0.26L71.69 0.26L75.17 0.26Q75.26 0.26 75.29 0.36L75.29 0.36L78.14 16.85Q78.17 16.97 78.05 16.97L78.05 16.97L75.38 16.97Q75.29 16.97 75.26 16.85L75.26 16.85L75.00 15.10L71.74 15.10L71.47 16.85Q71.45 16.97 71.35 16.97L71.35 16.97L68.69 16.97Q68.59 16.97 68.59 16.85ZM73.30 5.78L72.22 12.53L74.52 12.53L73.54 5.78L73.39 4.90L73.30 5.78ZM82.46 16.97L79.75 16.97Q79.66 16.97 79.66 16.85L79.66 16.85L79.70 0.36Q79.70 0.26 79.80 0.26L79.80 0.26L84.65 0.26Q85.94 0.26 87.04 0.90Q88.13 1.54 88.78 2.60Q89.42 3.67 89.42 5.02L89.42 5.02Q89.42 5.90 89.16 6.61Q88.90 7.32 88.54 7.81Q88.18 8.30 87.89 8.54L87.89 8.54Q89.18 9.98 89.18 11.93L89.18 11.93L89.21 16.85Q89.21 16.97 89.09 16.97L89.09 16.97L86.38 16.97Q86.28 16.97 86.28 16.90L86.28 16.90L86.28 11.93Q86.28 11.06 85.67 10.43Q85.06 9.79 84.17 9.79L84.17 9.79L82.58 9.79L82.56 16.85Q82.56 16.97 82.46 16.97L82.46 16.97ZM82.58 3.14L82.58 6.91L84.65 6.91Q85.39 6.91 85.97 6.36Q86.54 5.81 86.54 5.02L86.54 5.02Q86.54 4.25 85.98 3.70Q85.42 3.14 84.65 3.14L84.65 3.14L82.58 3.14ZM94.03 16.97L91.32 16.97Q91.22 16.97 91.22 16.85L91.22 16.85L91.27 0.36Q91.27 0.26 91.37 0.26L91.37 0.26L94.30 0.26Q94.39 0.26 94.46 0.36L94.46 0.36L96.65 3.53L98.83 0.36Q98.90 0.26 99.00 0.26L99.00 0.26L101.95 0.26Q102.05 0.26 102.05 0.36L102.05 0.36L102.10 16.85Q102.10 16.97 102.00 16.97L102.00 16.97L99.29 16.97Q99.19 16.97 99.19 16.85L99.19 16.85L99.17 4.61L96.65 8.26L94.15 4.61L94.13 16.85Q94.13 16.97 94.03 16.97L94.03 16.97ZM103.30 16.85L103.30 16.85L106.27 0.36Q106.30 0.26 106.39 0.26L106.39 0.26L109.87 0.26Q109.97 0.26 109.99 0.36L109.99 0.36L112.85 16.85Q112.87 16.97 112.75 16.97L112.75 16.97L110.09 16.97Q109.99 16.97 109.97 16.85L109.97 16.85L109.70 15.10L106.44 15.10L106.18 16.85Q106.15 16.97 106.06 16.97L106.06 16.97L103.39 16.97Q103.30 16.97 103.30 16.85ZM108.00 5.78L106.92 12.53L109.22 12.53L108.24 5.78L108.10 4.90L108.00 5.78Z" transform="translate(0, 52)"></path></svg>