<?xml version="1.0" standalone="no"?>
<svg xmlns="http://www.w3.org/2000/svg" viewBox="0 0 180.457 29" width="180.457" height="29"><g fill="#9fc9f1" color="#9fc9f1" transform="translate(0, 0) scale(0.29)"><svg width="100.0" height="100.0" x="0.0" y="0.0" viewBox="0 0 100 100"><path d="M76.084,23.722H63.947v-4.744c0-7.69-6.258-13.947-13.949-13.947c-7.69,0-13.946,6.256-13.946,13.947v4.744H23.915  L15.563,94.97h68.874L76.084,23.722z M61.969,28.908c1.093,0,1.979,0.886,1.979,1.979s-0.886,1.979-1.979,1.979  s-1.979-0.886-1.979-1.979S60.876,28.908,61.969,28.908z M40.052,18.978c0-5.484,4.462-9.947,9.946-9.947  c5.486,0,9.949,4.462,9.949,9.947v4.744H40.052V18.978z M38.073,28.908c1.093,0,1.979,0.886,1.979,1.979s-0.886,1.979-1.979,1.979  s-1.979-0.886-1.979-1.979S36.98,28.908,38.073,28.908z M66.204,66.153H55.4v10.814h-10.8V66.153l-10.805,0.002V55.353h10.805  V44.553h10.8v10.799h10.804V66.153z"></path></svg></g><line x1="41" y1="1" x2="41" y2="28" stroke="#000000" stroke-linecap="round"></line><path fill="#000000" fill-rule="nonzero" d="M10.97 0.89L10.97 18.94L8.88 18.94L7.92 17.28L4.58 19.08Q1.80 19.08 0.84 17.06L0.84 17.06Q0.36 16.08 0.18 14.94Q0 13.80 0 12.56Q0 11.33 0.02 10.74Q0.05 10.15 0.14 9.37Q0.24 8.59 0.42 8.06Q0.60 7.54 0.94 6.97Q1.27 6.41 1.75 6.07L1.75 6.07Q2.83 5.33 4.56 5.33L4.56 5.33L7.85 5.33L7.85 0.89L10.97 0.89ZM5.47 15.79L7.85 14.57L7.85 8.14L5.47 8.14Q4.15 8.14 3.64 9.14Q3.12 10.15 3.12 12.16Q3.12 14.16 3.61 14.98Q4.10 15.79 5.47 15.79L5.47 15.79ZM16.06 0Q17.18 0 17.52 0.35Q17.86 0.70 17.86 1.81Q17.86 2.93 17.51 3.28Q17.16 3.62 16.04 3.62Q14.93 3.62 14.58 3.26Q14.23 2.90 14.23 1.80Q14.23 0.70 14.58 0.35Q14.93 0 16.06 0ZM17.59 5.74L17.59 18.94L14.47 18.94L14.47 5.74L17.59 5.74ZM24.50 5.33L27.79 5.33L30.91 5.14L30.91 18.31Q30.91 20.59 29.63 21.80Q28.34 23.02 25.82 23.02L25.82 23.02Q23.88 23.02 22.42 22.25L22.42 22.25Q21.65 21.86 21.19 21.10Q20.74 20.33 20.74 19.27L20.74 19.27L23.64 19.13Q23.64 19.80 24.12 20.09Q24.60 20.38 25.76 20.38Q26.93 20.38 27.35 19.80Q27.77 19.22 27.77 18.14L27.77 18.14L27.89 16.08L24.53 17.88Q21.77 17.88 20.81 16.01L20.81 16.01Q19.94 14.35 19.94 11.95L19.94 11.95Q19.94 9.10 20.38 7.92L20.38 7.92Q20.83 6.62 21.67 6.05L21.67 6.05Q22.75 5.33 24.50 5.33L24.50 5.33ZM25.42 14.59L27.79 13.37L27.79 8.14L25.42 8.14Q24.07 8.14 23.57 9.05Q23.06 9.96 23.06 11.59Q23.06 13.22 23.58 13.91Q24.10 14.59 25.42 14.59L25.42 14.59ZM35.98 0Q37.10 0 37.44 0.35Q37.78 0.70 37.78 1.81Q37.78 2.93 37.43 3.28Q37.08 3.62 35.96 3.62Q34.85 3.62 34.50 3.26Q34.15 2.90 34.15 1.80Q34.15 0.70 34.50 0.35Q34.85 0 35.98 0ZM37.51 5.74L37.51 18.94L34.39 18.94L34.39 5.74L37.51 5.74ZM46.85 16.30L46.85 18.94L44.90 18.94Q43.13 18.94 42.20 17.88Q41.28 16.82 41.28 15.36L41.28 15.36L41.28 8.16L39.96 8.16L39.96 5.78L41.28 5.78L41.28 3.10L44.40 3.10L44.40 5.78L46.61 5.78L46.61 8.16L44.40 8.16L44.40 15.17Q44.40 16.30 45.48 16.30L45.48 16.30L46.85 16.30ZM58.87 5.14L58.87 18.94L56.78 18.94L55.82 17.28L52.49 19.08Q49.70 19.08 48.74 17.06L48.74 17.06Q48.26 16.08 48.08 14.94Q47.90 13.80 47.90 12.56Q47.90 11.33 47.93 10.74Q47.95 10.15 48.05 9.37Q48.14 8.59 48.32 8.06Q48.50 7.54 48.84 6.97Q49.18 6.41 49.66 6.07L49.66 6.07Q50.74 5.33 52.46 5.33L52.46 5.33L55.75 5.33L58.87 5.14ZM53.38 15.79L55.75 14.57L55.75 8.14L53.38 8.14Q52.06 8.14 51.54 9.14Q51.02 10.15 51.02 12.16Q51.02 14.16 51.52 14.98Q52.01 15.79 53.38 15.79L53.38 15.79ZM65.26 0.89L65.26 18.94L62.14 18.96L62.14 0.89L65.26 0.89ZM74.42 5.76L74.42 8.14L71.88 8.14L71.88 18.94L68.76 18.94L68.76 8.14L67.46 8.14L67.46 5.76L68.76 5.76L68.76 4.44Q68.76 2.98 69.70 1.92Q70.63 0.86 72.41 0.86L72.41 0.86L74.42 0.86L74.42 3.50L72.96 3.50Q71.88 3.50 71.88 4.63L71.88 4.63L71.88 5.76L74.42 5.76ZM86.26 5.14L86.26 18.94L84.17 18.94L83.21 17.28L79.87 19.08Q77.09 19.08 76.13 17.06L76.13 17.06Q75.65 16.08 75.47 14.94Q75.29 13.80 75.29 12.56Q75.29 11.33 75.31 10.74Q75.34 10.15 75.43 9.37Q75.53 8.59 75.71 8.06Q75.89 7.54 76.22 6.97Q76.56 6.41 77.04 6.07L77.04 6.07Q78.12 5.33 79.85 5.33L79.85 5.33L83.14 5.33L86.26 5.14ZM80.76 15.79L83.14 14.57L83.14 8.14L80.76 8.14Q79.44 8.14 78.92 9.14Q78.41 10.15 78.41 12.16Q78.41 14.16 78.90 14.98Q79.39 15.79 80.76 15.79L80.76 15.79ZM96.91 5.28L96.91 5.28L96.05 8.35Q95.69 8.21 95.23 8.21L95.23 8.21Q94.03 8.21 92.28 9.24L92.28 9.24L92.28 18.94L89.16 18.94L89.16 5.23L91.49 5.23L92.21 6.43L95.52 5.06Q95.76 5.04 96.17 5.04Q96.58 5.04 96.91 5.28ZM116.66 9.74L116.66 18.94L113.54 18.94L113.54 10.42Q113.54 9.14 113.24 8.64Q112.94 8.14 112.20 8.14L112.20 8.14L109.39 9.31L109.39 18.94L106.27 18.94L106.27 10.42Q106.27 8.14 104.69 8.14L104.69 8.14L102.12 9.31L102.12 18.94L99 18.94L99 5.23L101.33 5.23L102.05 6.86L105.65 5.09Q107.52 5.09 108.48 6.91L108.48 6.91L112.94 5.09Q114.82 5.09 115.74 6.35Q116.66 7.61 116.66 9.74L116.66 9.74ZM129.46 5.14L129.46 18.94L127.37 18.94L126.41 17.28L123.07 19.08Q120.29 19.08 119.33 17.06L119.33 17.06Q118.85 16.08 118.67 14.94Q118.49 13.80 118.49 12.56Q118.49 11.33 118.51 10.74Q118.54 10.15 118.63 9.37Q118.73 8.59 118.91 8.06Q119.09 7.54 119.42 6.97Q119.76 6.41 120.24 6.07L120.24 6.07Q121.32 5.33 123.05 5.33L123.05 5.33L126.34 5.33L129.46 5.14ZM123.96 15.79L126.34 14.57L126.34 8.14L123.96 8.14Q122.64 8.14 122.12 9.14Q121.61 10.15 121.61 12.16Q121.61 14.16 122.10 14.98Q122.59 15.79 123.96 15.79L123.96 15.79Z" transform="translate(51, 5.032)"></path></svg>